<?xml version="1.0" encoding="UTF-8" standalone="no"?>
<svg xmlns="http://www.w3.org/2000/svg" viewBox="0 0 1024 1024">
    <path d="M512,32a480,480 0,1 1,0 960,480 480,0 0,1 0,-960zM512,96a416,416 0,1 0,0 832,416 416,0 0,0 0,-832zM751.4,280.4c9.6,3.1 15,10.5 16,21.1a33.6,33.6 0,0 1,-0.4 10.8,19.1 19.1,0 0,1 -5.2,9.6 30.1,30.1 0,0 1,-12 6.6,119.3 119.3,0 0,1 -19.3,4.2l-20.7,2.6 -24,2.6 -27.1,2.4 -41.7,3.2 -56.2,3.7 -24.8,1.5v67.9h141.6l7.5,0.2c17.6,1.1 30.5,6.1 38.1,15.4 8.5,10.2 12.6,26 12.6,47.4v231.7l-0.4,8.3a68.2,68.2 0,0 1,-13.2 35.9c-9.5,12.5 -26.3,18.6 -49.9,18.6 -20.6,0 -43.8,-4.9 -70,-14.8 -21,-9.4 -28.7,-23.2 -20.7,-39.9 4.8,-9.6 10.6,-15.4 17.5,-16.6 6.3,-1.2 14.7,0.4 25.5,4.5 10.3,4.4 21,7.9 31.9,10.8a38,38 0,0 0,16.6 1.2c2.9,-0.8 4.7,-2.2 5.8,-4.8a41,41 0,0 0,1.9 -14.1L680.6,478.3l-0.1,-3.2 -0.1,-1.9 -0.5,-1.9 -1.8,-0.3 -2.4,-0.1L535.8,470.9v315l-0.3,5.2c-0.6,7.2 -2.9,12.8 -6.8,16.3 -4.7,4.2 -11.9,6.1 -21.4,6.1 -9.9,0 -17,-1.7 -21.1,-5.6 -4.4,-4 -6.1,-11.4 -6.1,-22.2v-314.9L343.5,470.8l-2.6,0.1 -1.9,0.3a2.2,2.2 0,0 0,-0.3 0.7l-0.4,3.5 -0.1,261.5 -0.3,6.5a43.8,43.8 0,0 1,-4.6 16.9c-3.8,7.2 -11.7,10.6 -22.9,10.6 -10.4,0 -18,-3.4 -22,-10.4a47.2,47.2 0,0 1,-5.2 -23.7L283.1,477.4l0.3,-8.3c1,-16.7 4.9,-29.4 12.2,-37.8 8.6,-10.2 24.3,-15 47.1,-15h137.5L480.1,351.4l-23.6,1.3 -28.2,1.3 -36.4,1.3 -50.8,1.2 -56.2,0.4c-11,0 -19.6,-2.4 -25.6,-7.5a23.3,23.3 0,0 1,-9.2 -18c0,-9.5 2.2,-17.1 6.9,-22.7 5.1,-6.1 15,-8.3 29.8,-7.5l19.6,0.6c65.7,1.5 131.5,0.4 197.1,-3.2a3316.8,3316.8 0,0 0,111.6 -8.1,2072.6 2072.6,0 0,0 100.6,-11.1c15.2,-2 27,-1.7 35.5,1z" />
</svg>
