<?xml version="1.0" encoding="UTF-8" standalone="no"?>
<svg xmlns="http://www.w3.org/2000/svg" viewBox="0 0 1024 1024">
    <path d="M950.2,164.7a42.7,42.7 0,0 0,-42.7 -14.3l-832,192a42.7,42.7 0,0 0,-21.3 69.8l134.2,153.4 -58,213.3a42.7,42.7 0,0 0,66.6 45.7l405.3,-298.7a42.7,42.7 0,1 0,-50.8 -68.7L244.1,682.7l31.8,-116.3a42.7,42.7 0,0 0,-9.2 -39.5l-102.2,-117.3 680.1,-157L621.2,768l-85.3,-57a42.7,42.7 0,1 0,-47.4 70.8l128,85.3A41.4,41.4 0,0 0,640 874.7a47.8,47.8 0,0 0,12.2 -1.7,42.7 42.7,0 0,0 26.9,-24.1l277.3,-640a42.7,42.7 0,0 0,-6.2 -44.2z" />
</svg>
