<?xml version="1.0" encoding="UTF-8" standalone="no"?>
<svg xmlns="http://www.w3.org/2000/svg" viewBox="0 0 1024 1024">
    <path d="M190.2,471.4c14.4,0 26.1,-11.7 26.1,-26.1 0,-14.4 -11.7,-26.2 -26.1,-26.2 -0.3,0 -0.5,0.1 -0.7,0.1l-62.5,0.1c-1.4,-0.2 -2.9,-0.3 -4.4,-0.3 -19.7,0 -35.6,16.1 -35.6,36.1L86.6,888.6c0,19.9 16,35.6 35.7,35.6 1.9,0 3.8,0.3 5.6,0l61,0c0.1,0 0.1,0 0.2,0 0.1,0 0.1,-0 0.2,-0l0.7,0 0,-0.1c13.4,-0.5 24.2,-11.4 24.2,-25 0,-13.6 -10.8,-24.4 -24.2,-25l0,-0.4 -50.9,0 1.5,-402.3L190.2,471.4z" fill="#5D5D5D"/>
    <path d="M926.5,433.9c-19.3,-31.4 -47.3,-44.2 -81.3,-45.5 -1.8,-0.2 -3.5,-0.4 -5.4,-0.4l-205.4,-0.7c13.5,-39.1 22.7,-85.6 22.7,-129.3 0,-28.3 -3.2,-56 -9,-82.5l-0.5,0c-10.6,-46.6 -51.7,-81.3 -101,-81.3 -57.3,0 -95.5,48.2 -95.5,106.1 0,3.2 -0.3,6.4 0,9.5 -3,108.4 -91.2,195.5 -196.2,207.5l0,54.9 -0.8,222.2 0,229.7 10.7,0 500,0.2 8.7,-0.2c19.4,0 30.2,-4.8 47.8,-16.1 16.7,-10.8 29.2,-25.5 37.5,-42.2 2.3,-3.3 4,-7.1 5.1,-11.2l77,-344.3c1.1,-4.1 1.3,-8.2 1.1,-12.2C943.6,476.4 938.8,453.9 926.5,433.9zM893.8,486.8l-83,367.8 -0.1,-0c-2.6,6.1 -6.9,11.6 -12.9,15.4 -4.2,2.7 -8.8,4.4 -13.4,5 -1.5,-0.2 -3,0 -4.6,0l-477,-0.5 -0.2,-407.4c89.3,-40.3 154.8,-79.7 188.6,-173.7 0.1,0 0.1,0 0.2,0.1 3,-9.1 6.3,-20.7 8.7,-33.2 5.6,-29.2 5.3,-58.1 5.3,-58.1 -4.9,-38 25.9,-53 44.4,-53 25.3,0.9 50.3,33.7 50.3,52.3 0,0 5.6,27.6 5.6,57.2 0,37.4 -4.7,56.8 -4.7,56.8l-0.5,0c-5.9,30.9 -16.2,60.1 -30.5,87l0.4,0.3c-2.4,4.8 -3.7,10.2 -3.7,15.9 0,19.9 19.1,21.7 38.8,21.7l238.8,0.3c0,0 14.7,0.5 14.7,0.5l0,0.1c12.1,-0.6 24.2,5.2 31.1,16.4 5.5,9 6.4,19.6 3.5,29L893.8,486.8z" fill="#5D5D5D"/>
    <path d="M264.8,924.3c0.3,0 0.4,0 0.3,-0 0.2,-0 0.4,-0.1 -0.3,-0.1s-0.5,0 -0.3,0.1C264.4,924.3 264.5,924.3 264.8,924.3z" fill="#5D5D5D"/>
</svg>
