<?xml version="1.0" encoding="UTF-8" standalone="no"?>
<svg xmlns="http://www.w3.org/2000/svg" viewBox="0 0 1024 1024">
    <path d="M865.9,583.2c-16.3,0 -29.6,13.2 -29.7,29.7l0,215.1c0,18 -14.6,32.6 -32.5,32.6L181.8,860.7c-17.9,0 -32.5,-14.6 -32.5,-32.6L149.2,292.2c0,-18 14.6,-32.6 32.5,-32.6l291.2,0c16.3,-0 29.6,-13.4 29.6,-29.7 0,-16.4 -13.3,-29.7 -29.6,-29.7l-295.3,0c-48.4,0 -87.7,39.5 -87.7,87.9l0,544.2c0,48.5 39.4,87.9 87.7,87.9l630.2,0c48.4,0 87.7,-39.5 87.7,-87.9L895.6,612.8C895.5,596.5 882.2,583.2 865.9,583.2z" fill="#5D5D5D"/>
    <path d="M930.8,338.2l0,-0.3L727.1,133.5l-6.4,-6.3 -0.8,0.8c-4.5,-2.5 -9.6,-3.9 -14.9,-3.9 -17,0 -30.8,13.8 -30.8,30.8 0,5.3 1.3,10.4 3.9,14.9l-0.9,0.9 141.8,142.2 -145.6,0.1C436.4,342.7 378.2,489.4 361,717.1c0,17 13.8,30.8 30.8,30.8 13.9,0 25.6,-9.2 29.5,-21.9l1.4,-8.2c18,-215.3 60.5,-321.6 251.8,-342.9l144.5,0L683.4,510.8l-5.5,7.7c-2,4.1 -3,9.1 -3,13.7 0,17 13.8,30.8 30.8,30.8 4.8,0 10.2,-1.2 14.4,-3.4L930,350.7c1.9,-1.3 4.1,-4.5 4.1,-7C934.1,341.3 932.7,339.5 930.8,338.2z" fill="#5D5D5D"/>
</svg>
